# MagicaVoxel @ Ephtracy

# group
o 

# material
mtllib altıyedi.mtl
usemtl palette

# normals
vn -1 0 0
vn 1 0 0
vn 0 0 1
vn 0 0 -1
vn 0 -1 0
vn 0 1 0

# texcoords
vt 0.958984 0.5
vt 0.994141 0.5

# verts
v -2 1.4 0.9
v -2 1.4 0.3
v -2 3.5 0.9
v -2 3.5 0.3
v -0.7 1.8 0.3
v -0.7 1.8 0.2
v -0.7 2.4 0.3
v -0.7 2.4 0.2
v -0.7 3 1
v -0.7 3 0.9
v -0.7 3.1 1
v -0.7 3.1 0.9
v -0.6 1.7 0.3
v -0.6 1.7 0.2
v -0.6 1.8 0.3
v -0.6 1.8 0.2
v -0.6 2.4 0.3
v -0.6 2.4 0.2
v -0.6 2.5 0.3
v -0.6 2.5 0.2
v -0.6 3 0.3
v -0.6 3 0.2
v -0.6 3.1 1
v -0.6 3.1 0.9
v -0.6 3.2 1
v -0.6 3.2 0.9
v -0.6 3.2 0.3
v -0.6 3.2 0.2
v -0.5 1.7 1
v -0.5 1.7 0.9
v -0.5 1.9 1
v -0.5 1.9 0.9
v -0.4 1.9 1
v -0.4 1.9 0.9
v -0.4 2.1 1
v -0.4 2.1 0.9
v -0.3 2.1 1
v -0.3 2.1 0.9
v -0.3 2.3 1
v -0.3 2.3 0.9
v -0.2 2.3 1
v -0.2 2.3 0.9
v -0.2 2.5 1
v -0.2 2.5 0.9
v -0.0999999 2.5 1
v -0.0999999 2.5 0.9
v -0.0999999 2.7 1
v -0.0999999 2.7 0.9
v 2.38419e-07 2.7 1
v 2.38419e-07 2.7 0.9
v 2.38419e-07 2.9 0.3
v 2.38419e-07 2.9 0.2
v 2.38419e-07 3 1
v 2.38419e-07 3 0.9
v 2.38419e-07 3 0.3
v 2.38419e-07 3 0.2
v 0.1 1.9 0.3
v 0.1 1.9 0.2
v 0.1 2.3 0.3
v 0.1 2.3 0.2
v 0.1 2.5 0.3
v 0.1 2.5 0.2
v 0.1 2.9 0.3
v 0.1 2.9 0.2
v 0.8 3.5 0.9
v 0.8 3.5 0.3
v 0.8 3.9 0.9
v 0.8 3.9 0.3
v 0.9 1 0.9
v 0.9 1 0.3
v 0.9 1.4 0.9
v 0.9 1.4 0.3
v -0.5 1.9 0.3
v -0.5 1.9 0.2
v -0.5 2.3 0.3
v -0.5 2.3 0.2
v -0.3 1.7 1
v -0.3 1.7 0.9
v -0.3 1.9 1
v -0.3 1.9 0.9
v -0.2 1.9 1
v -0.2 1.9 0.9
v -0.2 2.1 1
v -0.2 2.1 0.9
v -0.0999999 2.1 1
v -0.0999999 2.1 0.9
v -0.0999999 2.3 1
v -0.0999999 2.3 0.9
v 2.38419e-07 2.3 1
v 2.38419e-07 2.3 0.9
v 2.38419e-07 2.5 1
v 2.38419e-07 2.5 0.9
v 2.38419e-07 3.1 1
v 2.38419e-07 3.1 0.9
v 2.38419e-07 3.2 1
v 2.38419e-07 3.2 0.9
v 0.1 2.5 1
v 0.1 2.5 0.9
v 0.1 2.7 1
v 0.1 2.7 0.9
v 0.1 3 1
v 0.1 3 0.9
v 0.1 3.1 1
v 0.1 3.1 0.9
v 0.2 1.7 0.3
v 0.2 1.7 0.2
v 0.2 1.8 0.3
v 0.2 1.8 0.2
v 0.2 2.7 1
v 0.2 2.7 0.9
v 0.2 3 1
v 0.2 3 0.9
v 0.2 3.1 0.3
v 0.2 3.1 0.2
v 0.2 3.2 0.3
v 0.2 3.2 0.2
v 0.3 1.8 0.3
v 0.3 1.8 0.2
v 0.3 3.1 0.3
v 0.3 3.1 0.2
v 0.9 3.8 0.9
v 0.9 3.8 0.3
v 0.9 3.9 0.9
v 0.9 3.9 0.3
v 1 1 0.9
v 1 1 0.3
v 1 1.1 0.9
v 1 1.1 0.3
v 1 3.7 0.9
v 1 3.7 0.3
v 1 3.8 0.9
v 1 3.8 0.3
v 1.1 1.1 0.9
v 1.1 1.1 0.3
v 1.1 1.2 0.9
v 1.1 1.2 0.3
v 1.1 3.6 0.9
v 1.1 3.6 0.3
v 1.1 3.7 0.9
v 1.1 3.7 0.3
v 1.2 1.2 0.9
v 1.2 1.2 0.3
v 1.2 1.3 0.9
v 1.2 1.3 0.3
v 1.2 3.5 0.9
v 1.2 3.5 0.3
v 1.2 3.6 0.9
v 1.2 3.6 0.3
v 1.3 1.3 0.9
v 1.3 1.3 0.3
v 1.3 1.4 0.9
v 1.3 1.4 0.3
v 1.3 3.4 0.9
v 1.3 3.4 0.3
v 1.3 3.5 0.9
v 1.3 3.5 0.3
v 1.4 1.4 0.9
v 1.4 1.4 0.3
v 1.4 1.5 0.9
v 1.4 1.5 0.3
v 1.4 3.3 0.9
v 1.4 3.3 0.3
v 1.4 3.4 0.9
v 1.4 3.4 0.3
v 1.5 1.5 0.9
v 1.5 1.5 0.3
v 1.5 1.6 0.9
v 1.5 1.6 0.3
v 1.5 3.2 0.9
v 1.5 3.2 0.3
v 1.5 3.3 0.9
v 1.5 3.3 0.3
v 1.6 1.6 0.9
v 1.6 1.6 0.3
v 1.6 1.7 0.9
v 1.6 1.7 0.3
v 1.6 3.1 0.9
v 1.6 3.1 0.3
v 1.6 3.2 0.9
v 1.6 3.2 0.3
v 1.7 1.7 0.9
v 1.7 1.7 0.3
v 1.7 1.8 0.9
v 1.7 1.8 0.3
v 1.7 3 0.9
v 1.7 3 0.3
v 1.7 3.1 0.9
v 1.7 3.1 0.3
v 1.8 1.8 0.9
v 1.8 1.8 0.3
v 1.8 3 0.9
v 1.8 3 0.3
v -0.7 3 1
v -0.7 3.1 1
v -0.6 3.1 1
v -0.6 3.2 1
v -0.5 1.7 1
v -0.5 1.9 1
v -0.4 1.9 1
v -0.4 2.1 1
v -0.3 1.7 1
v -0.3 1.9 1
v -0.3 2.1 1
v -0.3 2.3 1
v -0.2 1.9 1
v -0.2 2.1 1
v -0.2 2.3 1
v -0.2 2.5 1
v -0.0999999 2.1 1
v -0.0999999 2.3 1
v -0.0999999 2.5 1
v -0.0999999 2.7 1
v 2.38419e-07 2.3 1
v 2.38419e-07 2.5 1
v 2.38419e-07 2.7 1
v 2.38419e-07 3 1
v 2.38419e-07 3.1 1
v 2.38419e-07 3.2 1
v 0.1 2.5 1
v 0.1 2.7 1
v 0.1 3 1
v 0.1 3.1 1
v 0.2 2.7 1
v 0.2 3 1
v -2 1.4 0.9
v -2 3.5 0.9
v -0.7 3 0.9
v -0.7 3.1 0.9
v -0.6 3.1 0.9
v -0.6 3.2 0.9
v -0.5 1.7 0.9
v -0.5 1.9 0.9
v -0.4 1.9 0.9
v -0.4 2.1 0.9
v -0.3 1.7 0.9
v -0.3 1.9 0.9
v -0.3 2.1 0.9
v -0.3 2.3 0.9
v -0.2 1.9 0.9
v -0.2 2.1 0.9
v -0.2 2.3 0.9
v -0.2 2.5 0.9
v -0.0999999 2.1 0.9
v -0.0999999 2.3 0.9
v -0.0999999 2.5 0.9
v -0.0999999 2.7 0.9
v 2.38419e-07 2.3 0.9
v 2.38419e-07 2.5 0.9
v 2.38419e-07 2.7 0.9
v 2.38419e-07 3 0.9
v 2.38419e-07 3.1 0.9
v 2.38419e-07 3.2 0.9
v 0.1 2.5 0.9
v 0.1 2.7 0.9
v 0.1 3 0.9
v 0.1 3.1 0.9
v 0.2 2.7 0.9
v 0.2 3 0.9
v 0.8 3.5 0.9
v 0.8 3.9 0.9
v 0.9 1 0.9
v 0.9 1.4 0.9
v 0.9 3.8 0.9
v 0.9 3.9 0.9
v 1 1 0.9
v 1 1.1 0.9
v 1 3.7 0.9
v 1 3.8 0.9
v 1.1 1.1 0.9
v 1.1 1.2 0.9
v 1.1 3.6 0.9
v 1.1 3.7 0.9
v 1.2 1.2 0.9
v 1.2 1.3 0.9
v 1.2 3.5 0.9
v 1.2 3.6 0.9
v 1.3 1.3 0.9
v 1.3 1.4 0.9
v 1.3 3.4 0.9
v 1.3 3.5 0.9
v 1.4 1.4 0.9
v 1.4 1.5 0.9
v 1.4 3.3 0.9
v 1.4 3.4 0.9
v 1.5 1.5 0.9
v 1.5 1.6 0.9
v 1.5 3.2 0.9
v 1.5 3.3 0.9
v 1.6 1.6 0.9
v 1.6 1.7 0.9
v 1.6 3.1 0.9
v 1.6 3.2 0.9
v 1.7 1.7 0.9
v 1.7 1.8 0.9
v 1.7 3 0.9
v 1.7 3.1 0.9
v 1.8 1.8 0.9
v 1.8 3 0.9
v -2 1.4 0.3
v -2 3.5 0.3
v -0.7 1.8 0.3
v -0.7 2.4 0.3
v -0.6 1.7 0.3
v -0.6 1.8 0.3
v -0.6 2.4 0.3
v -0.6 2.5 0.3
v -0.6 3 0.3
v -0.6 3.2 0.3
v -0.5 1.9 0.3
v -0.5 2.3 0.3
v 2.38419e-07 2.9 0.3
v 2.38419e-07 3 0.3
v 0.1 1.9 0.3
v 0.1 2.3 0.3
v 0.1 2.5 0.3
v 0.1 2.9 0.3
v 0.2 1.7 0.3
v 0.2 1.8 0.3
v 0.2 3.1 0.3
v 0.2 3.2 0.3
v 0.3 1.8 0.3
v 0.3 3.1 0.3
v 0.8 3.5 0.3
v 0.8 3.9 0.3
v 0.9 1 0.3
v 0.9 1.4 0.3
v 0.9 3.8 0.3
v 0.9 3.9 0.3
v 1 1 0.3
v 1 1.1 0.3
v 1 3.7 0.3
v 1 3.8 0.3
v 1.1 1.1 0.3
v 1.1 1.2 0.3
v 1.1 3.6 0.3
v 1.1 3.7 0.3
v 1.2 1.2 0.3
v 1.2 1.3 0.3
v 1.2 3.5 0.3
v 1.2 3.6 0.3
v 1.3 1.3 0.3
v 1.3 1.4 0.3
v 1.3 3.4 0.3
v 1.3 3.5 0.3
v 1.4 1.4 0.3
v 1.4 1.5 0.3
v 1.4 3.3 0.3
v 1.4 3.4 0.3
v 1.5 1.5 0.3
v 1.5 1.6 0.3
v 1.5 3.2 0.3
v 1.5 3.3 0.3
v 1.6 1.6 0.3
v 1.6 1.7 0.3
v 1.6 3.1 0.3
v 1.6 3.2 0.3
v 1.7 1.7 0.3
v 1.7 1.8 0.3
v 1.7 3 0.3
v 1.7 3.1 0.3
v 1.8 1.8 0.3
v 1.8 3 0.3
v -0.7 1.8 0.2
v -0.7 2.4 0.2
v -0.6 1.7 0.2
v -0.6 1.8 0.2
v -0.6 2.4 0.2
v -0.6 2.5 0.2
v -0.6 3 0.2
v -0.6 3.2 0.2
v -0.5 1.9 0.2
v -0.5 2.3 0.2
v 2.38419e-07 2.9 0.2
v 2.38419e-07 3 0.2
v 0.1 1.9 0.2
v 0.1 2.3 0.2
v 0.1 2.5 0.2
v 0.1 2.9 0.2
v 0.2 1.7 0.2
v 0.2 1.8 0.2
v 0.2 3.1 0.2
v 0.2 3.2 0.2
v 0.3 1.8 0.2
v 0.3 3.1 0.2
v 0.9 1 0.9
v 1 1 0.9
v 0.9 1 0.3
v 1 1 0.3
v 1 1.1 0.9
v 1.1 1.1 0.9
v 1 1.1 0.3
v 1.1 1.1 0.3
v 1.1 1.2 0.9
v 1.2 1.2 0.9
v 1.1 1.2 0.3
v 1.2 1.2 0.3
v 1.2 1.3 0.9
v 1.3 1.3 0.9
v 1.2 1.3 0.3
v 1.3 1.3 0.3
v -2 1.4 0.9
v 0.9 1.4 0.9
v 1.3 1.4 0.9
v 1.4 1.4 0.9
v -2 1.4 0.3
v 0.9 1.4 0.3
v 1.3 1.4 0.3
v 1.4 1.4 0.3
v 1.4 1.5 0.9
v 1.5 1.5 0.9
v 1.4 1.5 0.3
v 1.5 1.5 0.3
v 1.5 1.6 0.9
v 1.6 1.6 0.9
v 1.5 1.6 0.3
v 1.6 1.6 0.3
v -0.5 1.7 1
v -0.3 1.7 1
v -0.5 1.7 0.9
v -0.3 1.7 0.9
v 1.6 1.7 0.9
v 1.7 1.7 0.9
v -0.6 1.7 0.3
v 0.2 1.7 0.3
v 1.6 1.7 0.3
v 1.7 1.7 0.3
v -0.6 1.7 0.2
v 0.2 1.7 0.2
v 1.7 1.8 0.9
v 1.8 1.8 0.9
v -0.7 1.8 0.3
v -0.6 1.8 0.3
v 0.2 1.8 0.3
v 0.3 1.8 0.3
v 1.7 1.8 0.3
v 1.8 1.8 0.3
v -0.7 1.8 0.2
v -0.6 1.8 0.2
v 0.2 1.8 0.2
v 0.3 1.8 0.2
v -0.3 1.9 1
v -0.2 1.9 1
v -0.3 1.9 0.9
v -0.2 1.9 0.9
v -0.2 2.1 1
v -0.0999999 2.1 1
v -0.2 2.1 0.9
v -0.0999999 2.1 0.9
v -0.0999999 2.3 1
v 2.38419e-07 2.3 1
v -0.0999999 2.3 0.9
v 2.38419e-07 2.3 0.9
v -0.5 2.3 0.3
v 0.1 2.3 0.3
v -0.5 2.3 0.2
v 0.1 2.3 0.2
v 2.38419e-07 2.5 1
v 0.1 2.5 1
v 2.38419e-07 2.5 0.9
v 0.1 2.5 0.9
v 0.1 2.7 1
v 0.2 2.7 1
v 0.1 2.7 0.9
v 0.2 2.7 0.9
v 2.38419e-07 2.9 0.3
v 0.1 2.9 0.3
v 2.38419e-07 2.9 0.2
v 0.1 2.9 0.2
v -0.7 3 1
v 2.38419e-07 3 1
v -0.7 3 0.9
v 2.38419e-07 3 0.9
v -0.6 3 0.3
v 2.38419e-07 3 0.3
v -0.6 3 0.2
v 2.38419e-07 3 0.2
v -0.5 1.9 1
v -0.4 1.9 1
v -0.5 1.9 0.9
v -0.4 1.9 0.9
v -0.5 1.9 0.3
v 0.1 1.9 0.3
v -0.5 1.9 0.2
v 0.1 1.9 0.2
v -0.4 2.1 1
v -0.3 2.1 1
v -0.4 2.1 0.9
v -0.3 2.1 0.9
v -0.3 2.3 1
v -0.2 2.3 1
v -0.3 2.3 0.9
v -0.2 2.3 0.9
v -0.7 2.4 0.3
v -0.6 2.4 0.3
v -0.7 2.4 0.2
v -0.6 2.4 0.2
v -0.2 2.5 1
v -0.0999999 2.5 1
v -0.2 2.5 0.9
v -0.0999999 2.5 0.9
v -0.6 2.5 0.3
v 0.1 2.5 0.3
v -0.6 2.5 0.2
v 0.1 2.5 0.2
v -0.0999999 2.7 1
v 2.38419e-07 2.7 1
v -0.0999999 2.7 0.9
v 2.38419e-07 2.7 0.9
v 0.1 3 1
v 0.2 3 1
v 0.1 3 0.9
v 0.2 3 0.9
v 1.7 3 0.9
v 1.8 3 0.9
v 1.7 3 0.3
v 1.8 3 0.3
v -0.7 3.1 1
v -0.6 3.1 1
v 2.38419e-07 3.1 1
v 0.1 3.1 1
v -0.7 3.1 0.9
v -0.6 3.1 0.9
v 2.38419e-07 3.1 0.9
v 0.1 3.1 0.9
v 1.6 3.1 0.9
v 1.7 3.1 0.9
v 0.2 3.1 0.3
v 0.3 3.1 0.3
v 1.6 3.1 0.3
v 1.7 3.1 0.3
v 0.2 3.1 0.2
v 0.3 3.1 0.2
v -0.6 3.2 1
v 2.38419e-07 3.2 1
v -0.6 3.2 0.9
v 2.38419e-07 3.2 0.9
v 1.5 3.2 0.9
v 1.6 3.2 0.9
v -0.6 3.2 0.3
v 0.2 3.2 0.3
v 1.5 3.2 0.3
v 1.6 3.2 0.3
v -0.6 3.2 0.2
v 0.2 3.2 0.2
v 1.4 3.3 0.9
v 1.5 3.3 0.9
v 1.4 3.3 0.3
v 1.5 3.3 0.3
v 1.3 3.4 0.9
v 1.4 3.4 0.9
v 1.3 3.4 0.3
v 1.4 3.4 0.3
v -2 3.5 0.9
v 0.8 3.5 0.9
v 1.2 3.5 0.9
v 1.3 3.5 0.9
v -2 3.5 0.3
v 0.8 3.5 0.3
v 1.2 3.5 0.3
v 1.3 3.5 0.3
v 1.1 3.6 0.9
v 1.2 3.6 0.9
v 1.1 3.6 0.3
v 1.2 3.6 0.3
v 1 3.7 0.9
v 1.1 3.7 0.9
v 1 3.7 0.3
v 1.1 3.7 0.3
v 0.9 3.8 0.9
v 1 3.8 0.9
v 0.9 3.8 0.3
v 1 3.8 0.3
v 0.8 3.9 0.9
v 0.9 3.9 0.9
v 0.8 3.9 0.3
v 0.9 3.9 0.3

# faces
f 3/1/1 2/1/1 1/1/1
f 4/1/1 2/1/1 3/1/1
f 7/2/1 6/2/1 5/2/1
f 8/2/1 6/2/1 7/2/1
f 11/2/1 10/2/1 9/2/1
f 12/2/1 10/2/1 11/2/1
f 15/2/1 14/2/1 13/2/1
f 16/2/1 14/2/1 15/2/1
f 19/2/1 18/2/1 17/2/1
f 20/2/1 18/2/1 19/2/1
f 25/2/1 24/2/1 23/2/1
f 26/2/1 24/2/1 25/2/1
f 27/2/1 22/2/1 21/2/1
f 28/2/1 22/2/1 27/2/1
f 31/2/1 30/2/1 29/2/1
f 32/2/1 30/2/1 31/2/1
f 35/2/1 34/2/1 33/2/1
f 36/2/1 34/2/1 35/2/1
f 39/2/1 38/2/1 37/2/1
f 40/2/1 38/2/1 39/2/1
f 43/2/1 42/2/1 41/2/1
f 44/2/1 42/2/1 43/2/1
f 47/2/1 46/2/1 45/2/1
f 48/2/1 46/2/1 47/2/1
f 53/2/1 50/2/1 49/2/1
f 54/2/1 50/2/1 53/2/1
f 55/2/1 52/2/1 51/2/1
f 56/2/1 52/2/1 55/2/1
f 59/2/1 58/2/1 57/2/1
f 60/2/1 58/2/1 59/2/1
f 63/2/1 62/2/1 61/2/1
f 64/2/1 62/2/1 63/2/1
f 67/1/1 66/1/1 65/1/1
f 68/1/1 66/1/1 67/1/1
f 71/1/1 70/1/1 69/1/1
f 72/1/1 70/1/1 71/1/1
f 73/2/2 74/2/2 75/2/2
f 75/2/2 74/2/2 76/2/2
f 77/2/2 78/2/2 79/2/2
f 79/2/2 78/2/2 80/2/2
f 81/2/2 82/2/2 83/2/2
f 83/2/2 82/2/2 84/2/2
f 85/2/2 86/2/2 87/2/2
f 87/2/2 86/2/2 88/2/2
f 89/2/2 90/2/2 91/2/2
f 91/2/2 90/2/2 92/2/2
f 93/2/2 94/2/2 95/2/2
f 95/2/2 94/2/2 96/2/2
f 97/2/2 98/2/2 99/2/2
f 99/2/2 98/2/2 100/2/2
f 101/2/2 102/2/2 103/2/2
f 103/2/2 102/2/2 104/2/2
f 105/2/2 106/2/2 107/2/2
f 107/2/2 106/2/2 108/2/2
f 109/2/2 110/2/2 111/2/2
f 111/2/2 110/2/2 112/2/2
f 113/2/2 114/2/2 115/2/2
f 115/2/2 114/2/2 116/2/2
f 117/2/2 118/2/2 119/2/2
f 119/2/2 118/2/2 120/2/2
f 121/1/2 122/1/2 123/1/2
f 123/1/2 122/1/2 124/1/2
f 125/1/2 126/1/2 127/1/2
f 127/1/2 126/1/2 128/1/2
f 129/1/2 130/1/2 131/1/2
f 131/1/2 130/1/2 132/1/2
f 133/1/2 134/1/2 135/1/2
f 135/1/2 134/1/2 136/1/2
f 137/1/2 138/1/2 139/1/2
f 139/1/2 138/1/2 140/1/2
f 141/1/2 142/1/2 143/1/2
f 143/1/2 142/1/2 144/1/2
f 145/1/2 146/1/2 147/1/2
f 147/1/2 146/1/2 148/1/2
f 149/1/2 150/1/2 151/1/2
f 151/1/2 150/1/2 152/1/2
f 153/1/2 154/1/2 155/1/2
f 155/1/2 154/1/2 156/1/2
f 157/1/2 158/1/2 159/1/2
f 159/1/2 158/1/2 160/1/2
f 161/1/2 162/1/2 163/1/2
f 163/1/2 162/1/2 164/1/2
f 165/1/2 166/1/2 167/1/2
f 167/1/2 166/1/2 168/1/2
f 169/1/2 170/1/2 171/1/2
f 171/1/2 170/1/2 172/1/2
f 173/1/2 174/1/2 175/1/2
f 175/1/2 174/1/2 176/1/2
f 177/1/2 178/1/2 179/1/2
f 179/1/2 178/1/2 180/1/2
f 181/1/2 182/1/2 183/1/2
f 183/1/2 182/1/2 184/1/2
f 185/1/2 186/1/2 187/1/2
f 187/1/2 186/1/2 188/1/2
f 189/1/2 190/1/2 191/1/2
f 191/1/2 190/1/2 192/1/2
f 195/2/3 194/2/3 193/2/3
f 199/2/3 198/2/3 197/2/3
f 201/2/3 199/2/3 197/2/3
f 201/2/3 200/2/3 199/2/3
f 202/2/3 200/2/3 201/2/3
f 203/2/3 200/2/3 202/2/3
f 205/2/3 204/2/3 203/2/3
f 205/2/3 203/2/3 202/2/3
f 206/2/3 204/2/3 205/2/3
f 207/2/3 204/2/3 206/2/3
f 209/2/3 208/2/3 207/2/3
f 209/2/3 207/2/3 206/2/3
f 210/2/3 208/2/3 209/2/3
f 211/2/3 208/2/3 210/2/3
f 213/2/3 212/2/3 211/2/3
f 213/2/3 211/2/3 210/2/3
f 214/2/3 212/2/3 213/2/3
f 215/2/3 212/2/3 214/2/3
f 216/2/3 195/2/3 193/2/3
f 216/2/3 196/2/3 195/2/3
f 217/2/3 196/2/3 216/2/3
f 218/2/3 196/2/3 217/2/3
f 219/2/3 215/2/3 214/2/3
f 219/2/3 217/2/3 216/2/3
f 219/2/3 216/2/3 215/2/3
f 220/2/3 217/2/3 219/2/3
f 221/2/3 217/2/3 220/2/3
f 222/2/3 217/2/3 221/2/3
f 223/2/3 221/2/3 220/2/3
f 224/2/3 221/2/3 223/2/3
f 227/1/3 226/1/3 225/1/3
f 228/1/3 226/1/3 227/1/3
f 229/1/3 226/1/3 228/1/3
f 230/1/3 226/1/3 229/1/3
f 231/1/3 227/1/3 225/1/3
f 232/1/3 227/1/3 231/1/3
f 233/1/3 227/1/3 232/1/3
f 234/1/3 227/1/3 233/1/3
f 235/1/3 231/1/3 225/1/3
f 237/1/3 227/1/3 234/1/3
f 238/1/3 227/1/3 237/1/3
f 239/1/3 236/1/3 235/1/3
f 241/1/3 227/1/3 238/1/3
f 242/1/3 227/1/3 241/1/3
f 243/1/3 240/1/3 239/1/3
f 245/1/3 227/1/3 242/1/3
f 246/1/3 227/1/3 245/1/3
f 247/1/3 244/1/3 243/1/3
f 249/1/3 227/1/3 246/1/3
f 250/1/3 227/1/3 249/1/3
f 252/1/3 226/1/3 230/1/3
f 253/1/3 248/1/3 247/1/3
f 256/1/3 252/1/3 251/1/3
f 257/1/3 254/1/3 253/1/3
f 258/1/3 256/1/3 255/1/3
f 259/1/3 226/1/3 252/1/3
f 259/1/3 258/1/3 257/1/3
f 259/1/3 256/1/3 258/1/3
f 259/1/3 252/1/3 256/1/3
f 262/1/3 257/1/3 253/1/3
f 262/1/3 260/1/3 259/1/3
f 262/1/3 259/1/3 257/1/3
f 262/1/3 235/1/3 225/1/3
f 262/1/3 253/1/3 247/1/3
f 262/1/3 239/1/3 235/1/3
f 262/1/3 243/1/3 239/1/3
f 262/1/3 247/1/3 243/1/3
f 263/1/3 260/1/3 262/1/3
f 264/1/3 260/1/3 263/1/3
f 265/1/3 262/1/3 261/1/3
f 265/1/3 263/1/3 262/1/3
f 266/1/3 263/1/3 265/1/3
f 267/1/3 263/1/3 266/1/3
f 268/1/3 263/1/3 267/1/3
f 269/1/3 267/1/3 266/1/3
f 270/1/3 267/1/3 269/1/3
f 271/1/3 267/1/3 270/1/3
f 272/1/3 267/1/3 271/1/3
f 273/1/3 271/1/3 270/1/3
f 274/1/3 271/1/3 273/1/3
f 275/1/3 271/1/3 274/1/3
f 276/1/3 271/1/3 275/1/3
f 277/1/3 275/1/3 274/1/3
f 278/1/3 275/1/3 277/1/3
f 279/1/3 275/1/3 278/1/3
f 280/1/3 275/1/3 279/1/3
f 281/1/3 279/1/3 278/1/3
f 282/1/3 279/1/3 281/1/3
f 283/1/3 279/1/3 282/1/3
f 284/1/3 279/1/3 283/1/3
f 285/1/3 283/1/3 282/1/3
f 286/1/3 283/1/3 285/1/3
f 287/1/3 283/1/3 286/1/3
f 288/1/3 283/1/3 287/1/3
f 289/1/3 287/1/3 286/1/3
f 290/1/3 287/1/3 289/1/3
f 291/1/3 287/1/3 290/1/3
f 292/1/3 287/1/3 291/1/3
f 293/1/3 291/1/3 290/1/3
f 294/1/3 291/1/3 293/1/3
f 295/1/3 291/1/3 294/1/3
f 296/1/3 291/1/3 295/1/3
f 297/1/3 295/1/3 294/1/3
f 298/1/3 295/1/3 297/1/3
f 299/1/4 300/1/4 301/1/4
f 301/1/4 300/1/4 302/1/4
f 299/1/4 301/1/4 303/1/4
f 303/1/4 301/1/4 304/1/4
f 302/1/4 300/1/4 305/1/4
f 305/1/4 300/1/4 306/1/4
f 306/1/4 300/1/4 307/1/4
f 307/1/4 300/1/4 308/1/4
f 306/1/4 307/1/4 311/1/4
f 311/1/4 307/1/4 312/1/4
f 309/1/4 310/1/4 313/1/4
f 313/1/4 310/1/4 314/1/4
f 306/1/4 311/1/4 315/1/4
f 315/1/4 311/1/4 316/1/4
f 299/1/4 303/1/4 317/1/4
f 308/1/4 300/1/4 320/1/4
f 317/1/4 318/1/4 321/1/4
f 319/1/4 320/1/4 322/1/4
f 320/1/4 300/1/4 323/1/4
f 321/1/4 322/1/4 323/1/4
f 322/1/4 320/1/4 323/1/4
f 317/1/4 321/1/4 326/1/4
f 323/1/4 324/1/4 326/1/4
f 321/1/4 323/1/4 326/1/4
f 299/1/4 317/1/4 326/1/4
f 326/1/4 324/1/4 327/1/4
f 327/1/4 324/1/4 328/1/4
f 325/1/4 326/1/4 329/1/4
f 326/1/4 327/1/4 329/1/4
f 329/1/4 327/1/4 330/1/4
f 330/1/4 327/1/4 331/1/4
f 331/1/4 327/1/4 332/1/4
f 330/1/4 331/1/4 333/1/4
f 333/1/4 331/1/4 334/1/4
f 334/1/4 331/1/4 335/1/4
f 335/1/4 331/1/4 336/1/4
f 334/1/4 335/1/4 337/1/4
f 337/1/4 335/1/4 338/1/4
f 338/1/4 335/1/4 339/1/4
f 339/1/4 335/1/4 340/1/4
f 338/1/4 339/1/4 341/1/4
f 341/1/4 339/1/4 342/1/4
f 342/1/4 339/1/4 343/1/4
f 343/1/4 339/1/4 344/1/4
f 342/1/4 343/1/4 345/1/4
f 345/1/4 343/1/4 346/1/4
f 346/1/4 343/1/4 347/1/4
f 347/1/4 343/1/4 348/1/4
f 346/1/4 347/1/4 349/1/4
f 349/1/4 347/1/4 350/1/4
f 350/1/4 347/1/4 351/1/4
f 351/1/4 347/1/4 352/1/4
f 350/1/4 351/1/4 353/1/4
f 353/1/4 351/1/4 354/1/4
f 354/1/4 351/1/4 355/1/4
f 355/1/4 351/1/4 356/1/4
f 354/1/4 355/1/4 357/1/4
f 357/1/4 355/1/4 358/1/4
f 358/1/4 355/1/4 359/1/4
f 359/1/4 355/1/4 360/1/4
f 358/1/4 359/1/4 361/1/4
f 361/1/4 359/1/4 362/1/4
f 363/2/4 364/2/4 366/2/4
f 366/2/4 364/2/4 367/2/4
f 365/2/4 366/2/4 371/2/4
f 366/2/4 367/2/4 371/2/4
f 367/2/4 368/2/4 371/2/4
f 371/2/4 368/2/4 372/2/4
f 369/2/4 370/2/4 374/2/4
f 365/2/4 371/2/4 375/2/4
f 372/2/4 368/2/4 376/2/4
f 376/2/4 368/2/4 377/2/4
f 373/2/4 374/2/4 378/2/4
f 365/2/4 375/2/4 379/2/4
f 377/2/4 378/2/4 379/2/4
f 376/2/4 377/2/4 379/2/4
f 375/2/4 376/2/4 379/2/4
f 379/2/4 378/2/4 380/2/4
f 378/2/4 374/2/4 381/2/4
f 380/2/4 378/2/4 381/2/4
f 374/2/4 370/2/4 381/2/4
f 381/2/4 370/2/4 382/2/4
f 380/2/4 381/2/4 383/2/4
f 383/2/4 381/2/4 384/2/4
f 387/1/5 386/1/5 385/1/5
f 388/1/5 386/1/5 387/1/5
f 391/1/5 390/1/5 389/1/5
f 392/1/5 390/1/5 391/1/5
f 395/1/5 394/1/5 393/1/5
f 396/1/5 394/1/5 395/1/5
f 399/1/5 398/1/5 397/1/5
f 400/1/5 398/1/5 399/1/5
f 405/1/5 402/1/5 401/1/5
f 406/1/5 402/1/5 405/1/5
f 407/1/5 404/1/5 403/1/5
f 408/1/5 404/1/5 407/1/5
f 411/1/5 410/1/5 409/1/5
f 412/1/5 410/1/5 411/1/5
f 415/1/5 414/1/5 413/1/5
f 416/1/5 414/1/5 415/1/5
f 419/2/5 418/2/5 417/2/5
f 420/2/5 418/2/5 419/2/5
f 425/1/5 422/1/5 421/1/5
f 426/1/5 422/1/5 425/1/5
f 427/2/5 424/2/5 423/2/5
f 428/2/5 424/2/5 427/2/5
f 435/1/5 430/1/5 429/1/5
f 436/1/5 430/1/5 435/1/5
f 437/2/5 432/2/5 431/2/5
f 438/2/5 432/2/5 437/2/5
f 439/2/5 434/2/5 433/2/5
f 440/2/5 434/2/5 439/2/5
f 443/2/5 442/2/5 441/2/5
f 444/2/5 442/2/5 443/2/5
f 447/2/5 446/2/5 445/2/5
f 448/2/5 446/2/5 447/2/5
f 451/2/5 450/2/5 449/2/5
f 452/2/5 450/2/5 451/2/5
f 455/2/5 454/2/5 453/2/5
f 456/2/5 454/2/5 455/2/5
f 459/2/5 458/2/5 457/2/5
f 460/2/5 458/2/5 459/2/5
f 463/2/5 462/2/5 461/2/5
f 464/2/5 462/2/5 463/2/5
f 467/2/5 466/2/5 465/2/5
f 468/2/5 466/2/5 467/2/5
f 471/2/5 470/2/5 469/2/5
f 472/2/5 470/2/5 471/2/5
f 475/2/5 474/2/5 473/2/5
f 476/2/5 474/2/5 475/2/5
f 477/2/6 478/2/6 479/2/6
f 479/2/6 478/2/6 480/2/6
f 481/2/6 482/2/6 483/2/6
f 483/2/6 482/2/6 484/2/6
f 485/2/6 486/2/6 487/2/6
f 487/2/6 486/2/6 488/2/6
f 489/2/6 490/2/6 491/2/6
f 491/2/6 490/2/6 492/2/6
f 493/2/6 494/2/6 495/2/6
f 495/2/6 494/2/6 496/2/6
f 497/2/6 498/2/6 499/2/6
f 499/2/6 498/2/6 500/2/6
f 501/2/6 502/2/6 503/2/6
f 503/2/6 502/2/6 504/2/6
f 505/2/6 506/2/6 507/2/6
f 507/2/6 506/2/6 508/2/6
f 509/2/6 510/2/6 511/2/6
f 511/2/6 510/2/6 512/2/6
f 513/1/6 514/1/6 515/1/6
f 515/1/6 514/1/6 516/1/6
f 517/2/6 518/2/6 521/2/6
f 521/2/6 518/2/6 522/2/6
f 519/2/6 520/2/6 523/2/6
f 523/2/6 520/2/6 524/2/6
f 525/1/6 526/1/6 529/1/6
f 529/1/6 526/1/6 530/1/6
f 527/2/6 528/2/6 531/2/6
f 531/2/6 528/2/6 532/2/6
f 533/2/6 534/2/6 535/2/6
f 535/2/6 534/2/6 536/2/6
f 537/1/6 538/1/6 541/1/6
f 541/1/6 538/1/6 542/1/6
f 539/2/6 540/2/6 543/2/6
f 543/2/6 540/2/6 544/2/6
f 545/1/6 546/1/6 547/1/6
f 547/1/6 546/1/6 548/1/6
f 549/1/6 550/1/6 551/1/6
f 551/1/6 550/1/6 552/1/6
f 553/1/6 554/1/6 557/1/6
f 557/1/6 554/1/6 558/1/6
f 555/1/6 556/1/6 559/1/6
f 559/1/6 556/1/6 560/1/6
f 561/1/6 562/1/6 563/1/6
f 563/1/6 562/1/6 564/1/6
f 565/1/6 566/1/6 567/1/6
f 567/1/6 566/1/6 568/1/6
f 569/1/6 570/1/6 571/1/6
f 571/1/6 570/1/6 572/1/6
f 573/1/6 574/1/6 575/1/6
f 575/1/6 574/1/6 576/1/6
