# MagicaVoxel @ Ephtracy

# group
o 

# material
mtllib dort.mtl
usemtl palette

# normals
vn -1 0 0
vn 1 0 0
vn 0 0 1
vn 0 0 -1
vn 0 -1 0
vn 0 1 0

# texcoords
vt 0.958984 0.5
vt 0.994141 0.5

# verts
v -2 0.7 0.9
v -2 0.7 -2
v -2 4 0.9
v -2 4 -2
v -0.8 2.1 1.1
v -0.8 2.1 0.9
v -0.8 2.3 1.1
v -0.8 2.3 0.9
v -0.7 2.3 1.1
v -0.7 2.3 0.9
v -0.7 2.4 1.1
v -0.7 2.4 0.9
v -0.6 2.4 1.1
v -0.6 2.4 0.9
v -0.6 2.5 1.1
v -0.6 2.5 0.9
v -0.5 2.5 1.1
v -0.5 2.5 0.9
v -0.5 2.6 1.1
v -0.5 2.6 0.9
v -0.4 2.6 1.1
v -0.4 2.6 0.9
v -0.4 2.7 1.1
v -0.4 2.7 0.9
v -0.3 2.7 1.1
v -0.3 2.7 0.9
v -0.3 2.8 1.1
v -0.3 2.8 0.9
v -0.2 2.8 1.1
v -0.2 2.8 0.9
v -0.2 2.9 1.1
v -0.2 2.9 0.9
v -0.0999999 2.9 1.1
v -0.0999999 2.9 0.9
v -0.0999999 3 1.1
v -0.0999999 3 0.9
v 2.38419e-07 3 1.1
v 2.38419e-07 3 0.9
v 2.38419e-07 3.1 1.1
v 2.38419e-07 3.1 0.9
v 0.1 1.7 1.1
v 0.1 1.7 0.9
v 0.1 2.1 1.1
v 0.1 2.1 0.9
v 0.1 2.3 1.1
v 0.1 2.3 0.9
v 0.1 2.8 1.1
v 0.1 2.8 0.9
v 0.1 3.1 1.1
v 0.1 3.1 0.9
v 0.1 3.2 1.1
v 0.1 3.2 0.9
v -0.4 2.3 1.1
v -0.4 2.3 0.9
v -0.4 2.4 1.1
v -0.4 2.4 0.9
v -0.3 2.4 1.1
v -0.3 2.4 0.9
v -0.3 2.5 1.1
v -0.3 2.5 0.9
v -0.2 2.5 1.1
v -0.2 2.5 0.9
v -0.2 2.6 1.1
v -0.2 2.6 0.9
v -0.0999999 2.6 1.1
v -0.0999999 2.6 0.9
v -0.0999999 2.7 1.1
v -0.0999999 2.7 0.9
v 2.38419e-07 2.7 1.1
v 2.38419e-07 2.7 0.9
v 2.38419e-07 2.8 1.1
v 2.38419e-07 2.8 0.9
v 0.3 1.7 1.1
v 0.3 1.7 0.9
v 0.3 2.1 1.1
v 0.3 2.1 0.9
v 0.3 2.3 1.1
v 0.3 2.3 0.9
v 0.3 3.2 1.1
v 0.3 3.2 0.9
v 0.5 2.1 1.1
v 0.5 2.1 0.9
v 0.5 2.3 1.1
v 0.5 2.3 0.9
v 1.8 0.7 0.9
v 1.8 0.7 -2
v 1.8 4 0.9
v 1.8 4 -2
v -0.8 2.1 1.1
v -0.8 2.3 1.1
v -0.7 2.3 1.1
v -0.7 2.4 1.1
v -0.6 2.4 1.1
v -0.6 2.5 1.1
v -0.5 2.5 1.1
v -0.5 2.6 1.1
v -0.4 2.3 1.1
v -0.4 2.4 1.1
v -0.4 2.6 1.1
v -0.4 2.7 1.1
v -0.3 2.4 1.1
v -0.3 2.5 1.1
v -0.3 2.7 1.1
v -0.3 2.8 1.1
v -0.2 2.5 1.1
v -0.2 2.6 1.1
v -0.2 2.8 1.1
v -0.2 2.9 1.1
v -0.0999999 2.6 1.1
v -0.0999999 2.7 1.1
v -0.0999999 2.9 1.1
v -0.0999999 3 1.1
v 2.38419e-07 2.7 1.1
v 2.38419e-07 2.8 1.1
v 2.38419e-07 3 1.1
v 2.38419e-07 3.1 1.1
v 0.1 1.7 1.1
v 0.1 2.1 1.1
v 0.1 2.3 1.1
v 0.1 2.8 1.1
v 0.1 3.1 1.1
v 0.1 3.2 1.1
v 0.3 1.7 1.1
v 0.3 2.1 1.1
v 0.3 2.3 1.1
v 0.3 3.2 1.1
v 0.5 2.1 1.1
v 0.5 2.3 1.1
v -2 0.7 0.9
v -2 4 0.9
v -0.8 2.1 0.9
v -0.8 2.3 0.9
v -0.7 2.3 0.9
v -0.7 2.4 0.9
v -0.6 2.4 0.9
v -0.6 2.5 0.9
v -0.5 2.5 0.9
v -0.5 2.6 0.9
v -0.4 2.3 0.9
v -0.4 2.4 0.9
v -0.4 2.6 0.9
v -0.4 2.7 0.9
v -0.3 2.4 0.9
v -0.3 2.5 0.9
v -0.3 2.7 0.9
v -0.3 2.8 0.9
v -0.2 2.5 0.9
v -0.2 2.6 0.9
v -0.2 2.8 0.9
v -0.2 2.9 0.9
v -0.0999999 2.6 0.9
v -0.0999999 2.7 0.9
v -0.0999999 2.9 0.9
v -0.0999999 3 0.9
v 2.38419e-07 2.7 0.9
v 2.38419e-07 2.8 0.9
v 2.38419e-07 3 0.9
v 2.38419e-07 3.1 0.9
v 0.1 1.7 0.9
v 0.1 2.1 0.9
v 0.1 2.3 0.9
v 0.1 2.8 0.9
v 0.1 3.1 0.9
v 0.1 3.2 0.9
v 0.3 1.7 0.9
v 0.3 2.1 0.9
v 0.3 2.3 0.9
v 0.3 3.2 0.9
v 0.5 2.1 0.9
v 0.5 2.3 0.9
v 1.8 0.7 0.9
v 1.8 4 0.9
v -2 0.7 -2
v -2 4 -2
v 1.8 0.7 -2
v 1.8 4 -2
v -2 0.7 0.9
v 1.8 0.7 0.9
v -2 0.7 -2
v 1.8 0.7 -2
v 0.1 1.7 1.1
v 0.3 1.7 1.1
v 0.1 1.7 0.9
v 0.3 1.7 0.9
v -0.8 2.1 1.1
v 0.1 2.1 1.1
v 0.3 2.1 1.1
v 0.5 2.1 1.1
v -0.8 2.1 0.9
v 0.1 2.1 0.9
v 0.3 2.1 0.9
v 0.5 2.1 0.9
v -0.4 2.4 1.1
v -0.3 2.4 1.1
v -0.4 2.4 0.9
v -0.3 2.4 0.9
v -0.3 2.5 1.1
v -0.2 2.5 1.1
v -0.3 2.5 0.9
v -0.2 2.5 0.9
v -0.2 2.6 1.1
v -0.0999999 2.6 1.1
v -0.2 2.6 0.9
v -0.0999999 2.6 0.9
v -0.0999999 2.7 1.1
v 2.38419e-07 2.7 1.1
v -0.0999999 2.7 0.9
v 2.38419e-07 2.7 0.9
v 2.38419e-07 2.8 1.1
v 0.1 2.8 1.1
v 2.38419e-07 2.8 0.9
v 0.1 2.8 0.9
v -0.8 2.3 1.1
v -0.7 2.3 1.1
v -0.4 2.3 1.1
v 0.1 2.3 1.1
v 0.3 2.3 1.1
v 0.5 2.3 1.1
v -0.8 2.3 0.9
v -0.7 2.3 0.9
v -0.4 2.3 0.9
v 0.1 2.3 0.9
v 0.3 2.3 0.9
v 0.5 2.3 0.9
v -0.7 2.4 1.1
v -0.6 2.4 1.1
v -0.7 2.4 0.9
v -0.6 2.4 0.9
v -0.6 2.5 1.1
v -0.5 2.5 1.1
v -0.6 2.5 0.9
v -0.5 2.5 0.9
v -0.5 2.6 1.1
v -0.4 2.6 1.1
v -0.5 2.6 0.9
v -0.4 2.6 0.9
v -0.4 2.7 1.1
v -0.3 2.7 1.1
v -0.4 2.7 0.9
v -0.3 2.7 0.9
v -0.3 2.8 1.1
v -0.2 2.8 1.1
v -0.3 2.8 0.9
v -0.2 2.8 0.9
v -0.2 2.9 1.1
v -0.0999999 2.9 1.1
v -0.2 2.9 0.9
v -0.0999999 2.9 0.9
v -0.0999999 3 1.1
v 2.38419e-07 3 1.1
v -0.0999999 3 0.9
v 2.38419e-07 3 0.9
v 2.38419e-07 3.1 1.1
v 0.1 3.1 1.1
v 2.38419e-07 3.1 0.9
v 0.1 3.1 0.9
v 0.1 3.2 1.1
v 0.3 3.2 1.1
v 0.1 3.2 0.9
v 0.3 3.2 0.9
v -2 4 0.9
v 1.8 4 0.9
v -2 4 -2
v 1.8 4 -2

# faces
f 3/1/1 2/1/1 1/1/1
f 4/1/1 2/1/1 3/1/1
f 7/2/1 6/2/1 5/2/1
f 8/2/1 6/2/1 7/2/1
f 11/2/1 10/2/1 9/2/1
f 12/2/1 10/2/1 11/2/1
f 15/2/1 14/2/1 13/2/1
f 16/2/1 14/2/1 15/2/1
f 19/2/1 18/2/1 17/2/1
f 20/2/1 18/2/1 19/2/1
f 23/2/1 22/2/1 21/2/1
f 24/2/1 22/2/1 23/2/1
f 27/2/1 26/2/1 25/2/1
f 28/2/1 26/2/1 27/2/1
f 31/2/1 30/2/1 29/2/1
f 32/2/1 30/2/1 31/2/1
f 35/2/1 34/2/1 33/2/1
f 36/2/1 34/2/1 35/2/1
f 39/2/1 38/2/1 37/2/1
f 40/2/1 38/2/1 39/2/1
f 43/2/1 42/2/1 41/2/1
f 44/2/1 42/2/1 43/2/1
f 47/2/1 46/2/1 45/2/1
f 48/2/1 46/2/1 47/2/1
f 51/2/1 50/2/1 49/2/1
f 52/2/1 50/2/1 51/2/1
f 53/2/2 54/2/2 55/2/2
f 55/2/2 54/2/2 56/2/2
f 57/2/2 58/2/2 59/2/2
f 59/2/2 58/2/2 60/2/2
f 61/2/2 62/2/2 63/2/2
f 63/2/2 62/2/2 64/2/2
f 65/2/2 66/2/2 67/2/2
f 67/2/2 66/2/2 68/2/2
f 69/2/2 70/2/2 71/2/2
f 71/2/2 70/2/2 72/2/2
f 73/2/2 74/2/2 75/2/2
f 75/2/2 74/2/2 76/2/2
f 77/2/2 78/2/2 79/2/2
f 79/2/2 78/2/2 80/2/2
f 81/2/2 82/2/2 83/2/2
f 83/2/2 82/2/2 84/2/2
f 85/1/2 86/1/2 87/1/2
f 87/1/2 86/1/2 88/1/2
f 91/2/3 90/2/3 89/2/3
f 93/2/3 92/2/3 91/2/3
f 95/2/3 94/2/3 93/2/3
f 97/2/3 91/2/3 89/2/3
f 97/2/3 96/2/3 95/2/3
f 97/2/3 95/2/3 93/2/3
f 97/2/3 93/2/3 91/2/3
f 98/2/3 96/2/3 97/2/3
f 99/2/3 96/2/3 98/2/3
f 101/2/3 100/2/3 99/2/3
f 101/2/3 99/2/3 98/2/3
f 102/2/3 100/2/3 101/2/3
f 103/2/3 100/2/3 102/2/3
f 105/2/3 104/2/3 103/2/3
f 105/2/3 103/2/3 102/2/3
f 106/2/3 104/2/3 105/2/3
f 107/2/3 104/2/3 106/2/3
f 109/2/3 108/2/3 107/2/3
f 109/2/3 107/2/3 106/2/3
f 110/2/3 108/2/3 109/2/3
f 111/2/3 108/2/3 110/2/3
f 113/2/3 112/2/3 111/2/3
f 113/2/3 111/2/3 110/2/3
f 114/2/3 112/2/3 113/2/3
f 115/2/3 112/2/3 114/2/3
f 118/2/3 97/2/3 89/2/3
f 119/2/3 97/2/3 118/2/3
f 120/2/3 115/2/3 114/2/3
f 120/2/3 116/2/3 115/2/3
f 121/2/3 116/2/3 120/2/3
f 123/2/3 119/2/3 118/2/3
f 123/2/3 122/2/3 121/2/3
f 123/2/3 121/2/3 120/2/3
f 123/2/3 120/2/3 119/2/3
f 123/2/3 118/2/3 117/2/3
f 124/2/3 122/2/3 123/2/3
f 125/2/3 122/2/3 124/2/3
f 126/2/3 122/2/3 125/2/3
f 127/2/3 125/2/3 124/2/3
f 128/2/3 125/2/3 127/2/3
f 131/1/3 130/1/3 129/1/3
f 132/1/3 130/1/3 131/1/3
f 133/1/3 130/1/3 132/1/3
f 134/1/3 130/1/3 133/1/3
f 135/1/3 130/1/3 134/1/3
f 136/1/3 130/1/3 135/1/3
f 137/1/3 130/1/3 136/1/3
f 138/1/3 130/1/3 137/1/3
f 141/1/3 130/1/3 138/1/3
f 142/1/3 130/1/3 141/1/3
f 143/1/3 140/1/3 139/1/3
f 145/1/3 130/1/3 142/1/3
f 146/1/3 130/1/3 145/1/3
f 147/1/3 144/1/3 143/1/3
f 149/1/3 130/1/3 146/1/3
f 150/1/3 130/1/3 149/1/3
f 151/1/3 148/1/3 147/1/3
f 153/1/3 130/1/3 150/1/3
f 154/1/3 130/1/3 153/1/3
f 155/1/3 152/1/3 151/1/3
f 157/1/3 130/1/3 154/1/3
f 158/1/3 130/1/3 157/1/3
f 159/1/3 131/1/3 129/1/3
f 160/1/3 131/1/3 159/1/3
f 161/1/3 156/1/3 155/1/3
f 161/1/3 143/1/3 139/1/3
f 161/1/3 147/1/3 143/1/3
f 161/1/3 151/1/3 147/1/3
f 161/1/3 155/1/3 151/1/3
f 162/1/3 156/1/3 161/1/3
f 163/1/3 130/1/3 158/1/3
f 164/1/3 130/1/3 163/1/3
f 165/1/3 159/1/3 129/1/3
f 168/1/3 130/1/3 164/1/3
f 169/1/3 166/1/3 165/1/3
f 170/1/3 168/1/3 167/1/3
f 171/1/3 169/1/3 165/1/3
f 171/1/3 170/1/3 169/1/3
f 171/1/3 165/1/3 129/1/3
f 172/1/3 168/1/3 170/1/3
f 172/1/3 170/1/3 171/1/3
f 172/1/3 130/1/3 168/1/3
f 173/1/4 174/1/4 175/1/4
f 175/1/4 174/1/4 176/1/4
f 179/1/5 178/1/5 177/1/5
f 180/1/5 178/1/5 179/1/5
f 183/2/5 182/2/5 181/2/5
f 184/2/5 182/2/5 183/2/5
f 189/2/5 186/2/5 185/2/5
f 190/2/5 186/2/5 189/2/5
f 191/2/5 188/2/5 187/2/5
f 192/2/5 188/2/5 191/2/5
f 195/2/5 194/2/5 193/2/5
f 196/2/5 194/2/5 195/2/5
f 199/2/5 198/2/5 197/2/5
f 200/2/5 198/2/5 199/2/5
f 203/2/5 202/2/5 201/2/5
f 204/2/5 202/2/5 203/2/5
f 207/2/5 206/2/5 205/2/5
f 208/2/5 206/2/5 207/2/5
f 211/2/5 210/2/5 209/2/5
f 212/2/5 210/2/5 211/2/5
f 213/2/6 214/2/6 219/2/6
f 219/2/6 214/2/6 220/2/6
f 215/2/6 216/2/6 221/2/6
f 221/2/6 216/2/6 222/2/6
f 217/2/6 218/2/6 223/2/6
f 223/2/6 218/2/6 224/2/6
f 225/2/6 226/2/6 227/2/6
f 227/2/6 226/2/6 228/2/6
f 229/2/6 230/2/6 231/2/6
f 231/2/6 230/2/6 232/2/6
f 233/2/6 234/2/6 235/2/6
f 235/2/6 234/2/6 236/2/6
f 237/2/6 238/2/6 239/2/6
f 239/2/6 238/2/6 240/2/6
f 241/2/6 242/2/6 243/2/6
f 243/2/6 242/2/6 244/2/6
f 245/2/6 246/2/6 247/2/6
f 247/2/6 246/2/6 248/2/6
f 249/2/6 250/2/6 251/2/6
f 251/2/6 250/2/6 252/2/6
f 253/2/6 254/2/6 255/2/6
f 255/2/6 254/2/6 256/2/6
f 257/2/6 258/2/6 259/2/6
f 259/2/6 258/2/6 260/2/6
f 261/1/6 262/1/6 263/1/6
f 263/1/6 262/1/6 264/1/6
